HIERARCHY
ROOT pelvis
{
  OFFSET 0 100 0
  CHANNELS 6 Xposition Yposition Zposition Zrotation Xrotation Yrotation
  JOINT pelvis_right_femur
  {
    OFFSET -10.78128 -3.44521 -0.5502486
    CHANNELS 3 Zrotation Xrotation Yrotation
    JOINT right_femur_tibia
    {
      OFFSET -0.8047443 -44.0398 -0.1307829
      CHANNELS 3 Zrotation Xrotation Yrotation
      JOINT right_tibia_foot
      {
        OFFSET 3.006224 -47.83518 -5
        CHANNELS 3 Zrotation Xrotation Yrotation
        End Site
        {
          OFFSET 0 -5 15
        }
      }
    }
  }
  JOINT pelvis_left_femur
  {
    OFFSET 10.78128 -3.44521 -0.5502486
    CHANNELS 3 Zrotation Xrotation Yrotation
    JOINT left_femur_tibia
    {
      OFFSET 0.8047443 -44.0398 -0.1307829
      CHANNELS 3 Zrotation Xrotation Yrotation
      JOINT left_tibia_foot
      {
        OFFSET -4.370144 -48.10324 -4.275266
        CHANNELS 3 Zrotation Xrotation Yrotation
        End Site
        {
          OFFSET 0 -5 15
        }
      }
    }
  }
  JOINT pelvis_spine1
  {
    OFFSET 0 6.468898 -3.129235
    CHANNELS 3 Zrotation Xrotation Yrotation
    JOINT spine1
    {
      OFFSET 0 23.15396 4.99043
      CHANNELS 3 Zrotation Xrotation Yrotation
      JOINT spine2
      {
        OFFSET 0 20.79997 -5.064912
        CHANNELS 3 Zrotation Xrotation Yrotation
        JOINT neck
        {
          OFFSET 0 14.38658 9.616178
          CHANNELS 3 Zrotation Xrotation Yrotation
          End Site
          {
            OFFSET 0 20 0
          }
        }
      }
      JOINT right_manubrium
      {
        OFFSET -5.722621 16.35077 3.967754
        CHANNELS 3 Zrotation Xrotation Yrotation
        JOINT right_clavicle
        {
          OFFSET -13.16364 1.694482 -4.693211
          CHANNELS 3 Zrotation Xrotation Yrotation
          JOINT right_humerus
          {
            OFFSET -28.5034 -0.3100689 -2.792744
            CHANNELS 3 Zrotation Xrotation Yrotation
            JOINT right_radius
            {
              OFFSET -25.15693 0.02248979 -1.271978
              CHANNELS 3 Zrotation Xrotation Yrotation
              End Site
              {
                OFFSET -15 0 0
              }
            }
          }
        }
      }
      JOINT left_manubrium
      {
        OFFSET 5.722621 16.35077 3.967754
        CHANNELS 3 Zrotation Xrotation Yrotation
        JOINT left_clavicle
        {
          OFFSET 13.16364 1.694482 -4.693211
          CHANNELS 3 Zrotation Xrotation Yrotation
          JOINT left_humerus
          {
            OFFSET 29.39168 -1.063119 -2.237045
            CHANNELS 3 Zrotation Xrotation Yrotation
            JOINT left_radius
            {
              OFFSET 24.59957 -0.9528479 0.9047498
              CHANNELS 3 Zrotation Xrotation Yrotation
              End Site
              {
                OFFSET 15 -0 -0
              }
            }
          }
        }
      }
    }
  }
}
MOTION
Frames: 17
Frame Time: 0.0416666666667
0 103.5113 0 1.053252 -0.8980269 0.02425692 3.090149 -16.56281 8.378973 -0 35.69866 -0 -5.27814 -16.07713 -4.012703 -7.092233 11.68492 -23.07387 -0 4.727263 -0 4.523355 -19.55999 25.71 -2.915526 -5.229187 3.52796 3.347965 7.876676 -9.649036 0.1840249 20.19193 8.956717 3.461422 -25.49622 9.88874 6.543624 -19.18163 12.96288 83.30131 31.61951 -17.26695 -0 0 20.35782 -10.79322 9.936497 6.11671 9.99818 -21.73517 5.466673 -93.38742 17.32524 20.4409 0 0 -7.769583 11.94887 19.42205 -4.251728
0.2060007 103.0126 1.691355 0.1092011 -0.3796699 -0.03539499 4.399276 -19.83862 8.664313 -0 36.64536 -0 -6.023717 -14.22839 -4.328117 -6.202044 11.75308 -22.70316 -0 5.35015 -0 2.907134 -20.77124 24.43416 -2.965217 -5.276356 3.6364 3.301331 7.823153 -9.590535 0.1484679 20.21252 8.999533 3.523281 -25.47574 9.834144 6.548318 -19.0666 12.83958 83.07698 32.00438 -17.05285 -0 0 20.07957 -10.98 10.10192 6.295051 9.910064 -21.78159 5.447675 -93.27618 17.49839 20.3839 0 0 -8.248549 11.8927 19.29077 -4.034818
0.4625745 101.69 5.171707 0.06988357 0.821333 0.08852548 3.911253 -31.15599 2.822744 -0 18.25287 -0 -6.366359 -5.726368 -2.261338 -6.3228 14.43785 -16.18453 -0 6.235587 -0 7.021465 -21.38381 20.12375 -3.800441 -3.074813 5.969566 1.821525 10.49826 -6.788161 0.7119444 22.47741 6.784433 1.988787 -24.04381 9.044133 4.980899 -20.51128 12.54775 85.11999 38.24248 -14.19641 -0 0 14.87523 -11.94657 8.952486 9.209208 3.170426 -18.52249 -1.703886 -91.40742 20.66017 24.33253 0 0 -13.98142 10.98822 12.92768 1.035198
0.7403372 100.4529 8.552996 -0.4559928 2.313107 0.298875 5.664005 -32.97961 5.129098 -0 18.51305 -0 -5.81113 -5.887081 -2.396124 -6.121489 13.95228 -17.16515 -0 6.591706 -0 6.789432 -22.32027 21.08449 -3.758851 -3.503575 6.003654 2.043955 10.8398 -6.989591 1.185286 22.872 6.495252 1.713285 -24.72129 9.956553 5.513304 -20.51583 12.12136 86.08671 38.86505 -16.58002 -0 0 14.21528 -8.253603 7.89536 6.411951 3.514019 -18.65325 -2.135177 -92.06707 21.93759 23.54357 0 0 -14.38078 13.74335 13.80658 -1.32796
1.040912 99.22969 12.33651 -0.8842626 3.465287 0.6486872 6.934038 -35.27861 5.884431 -0 15.97875 -0 -5.381565 -4.041871 -1.974339 -5.956296 14.15197 -16.58057 -0 8.078085 -0 6.945382 -22.2535 20.51461 -3.55249 -2.703904 5.784863 2.161053 11.26482 -6.793021 1.273635 22.94193 6.371566 1.587819 -24.87265 10.06452 5.304061 -20.46693 12.34843 87.45102 39.40546 -17.37302 -0 0 13.0081 -7.739482 7.644607 6.576406 2.719473 -18.20491 -3.382057 -91.27265 22.08198 23.1786 0 0 -16.33407 13.79684 12.1074 -0.8713616
1.360995 98.16659 16.1774 -1.617498 4.319168 1.160264 8.580808 -35.7669 7.363316 -0 16.66582 -0 -5.646811 -3.585761 -1.605918 -5.526289 13.63687 -17.22142 -0 9.630085 -0 5.487434 -22.86539 20.41979 -3.387797 -2.6187 5.660905 2.380086 11.25966 -6.864831 1.429679 22.8826 6.387445 1.557894 -25.40797 10.52147 5.437554 -20.50644 12.18276 87.81577 39.52975 -18.27317 -0 0 12.90043 -6.049726 7.230896 5.534585 2.919319 -18.14379 -3.545414 -91.45515 22.56027 22.84174 0 0 -17.04574 14.93081 11.97116 -1.819489
1.696612 97.24417 20.32098 -2.204448 4.832292 1.789658 9.526216 -36.14449 7.712206 -0 16.18458 -0 -6.106582 -2.665956 -1.209533 -5.078988 13.65675 -16.97738 -0 11.86551 -0 3.875747 -22.66576 19.00844 -3.240439 -2.155358 5.340459 2.547197 11.23324 -6.893486 1.357815 22.70708 6.638439 1.726592 -25.5872 10.5925 5.29311 -20.2677 12.32706 88.37957 39.57166 -18.72367 -0 0 12.26027 -6.067714 7.268533 5.756247 2.90825 -18.23783 -3.846824 -90.67896 22.35606 21.9248 0 0 -18.68016 14.91254 11.01269 -1.790745
2.037232 96.48735 24.69479 -2.733343 5.019203 2.505036 10.0392 -35.66877 7.616987 -0 16.32169 -0 -7.012535 -2.50192 -0.8986334 -4.609001 13.64958 -16.85693 -0 14.24065 -0 1.778874 -22.41267 17.42993 -3.150058 -1.877214 5.092483 2.673936 11.15256 -6.944853 1.294929 22.55822 6.872602 1.88588 -25.72873 10.66475 5.187233 -20.0749 12.40211 88.70538 39.52127 -19.05539 -0 0 11.85043 -6.083469 7.291756 5.86257 3.032031 -18.40791 -3.947215 -90.1063 22.18205 21.11843 0 0 -19.90819 14.95603 10.4416 -1.895089
2.383592 95.88584 29.47235 -3.036171 5.058979 3.241295 10.03643 -35.12031 7.047511 -0 15.78393 -0 -7.704158 -2.252347 -0.8703656 -4.19946 14.04596 -16.1279 -0 17.13348 -0 -0.03467904 -21.1896 15.21176 -3.106432 -1.530925 4.764809 2.738106 11.11344 -6.981354 1.177138 22.45384 7.160067 2.070954 -25.65352 10.61254 4.907316 -19.8013 12.58127 89.28142 39.33167 -19.35311 -0 0 11.1348 -6.751463 7.356314 6.37051 3.061086 -18.71485 -4.170624 -89.0954 21.73232 19.94682 0 0 -21.58242 14.59754 9.705075 -1.689184
2.733595 95.45455 34.71458 -3.209072 4.951884 3.945572 9.817236 -34.12105 6.422326 -0 15.43736 -0 -8.243192 -2.177525 -1.083273 -3.825297 14.46651 -15.20096 -0 20.61197 -0 -1.694188 -19.26012 12.96654 -3.093639 -1.241679 4.456649 2.72659 11.14052 -6.981454 1.087628 22.44821 7.37546 2.182252 -25.4527 10.53118 4.489336 -19.60728 12.76478 90.00926 38.94261 -19.62634 -0 0 10.39698 -7.584543 7.294106 6.913262 2.993304 -19.0404 -4.48142 -88.06298 21.21085 18.83656 0 0 -23.17681 14.11556 9.131944 -1.388462
3.080263 95.2422 40.51762 -3.274803 4.649023 4.52775 9.520972 -32.37805 5.903496 -0 15.47102 -0 -8.496807 -2.133788 -1.550887 -3.445271 14.69809 -13.99831 -0 25.45783 -0 -3.282849 -16.26383 10.75604 -3.054166 -0.9645823 4.133377 2.619955 11.28056 -6.931753 1.044464 22.54502 7.489761 2.202498 -25.09999 10.39757 3.769984 -19.5261 12.96203 91.09701 38.10385 -19.9446 -0 0 9.559744 -8.68922 7.04729 7.503394 2.78528 -19.4396 -4.972581 -86.92154 20.51481 17.74092 0 0 -24.86176 13.4254 8.722614 -0.9299502
3.402183 95.31222 46.84163 -3.23904 3.884886 4.842931 9.222804 -29.24481 5.552831 -0 16.30466 -0 -8.568676 -2.438924 -2.187512 -3.044958 14.12778 -12.69034 -0 32.25692 -0 -4.914429 -12.34491 9.157644 -2.880215 -0.7521283 3.871158 2.389821 11.61233 -6.834771 1.101556 22.72452 7.369446 2.072997 -24.60405 10.16516 2.615549 -19.69595 13.12952 92.57315 36.49086 -20.27794 -0 0 8.818101 -10.038 6.629431 7.989139 2.414936 -19.91823 -5.648082 -85.90596 19.593 17.00865 0 0 -26.2532 12.5656 8.729556 -0.3644846
3.681499 95.71396 53.42295 -3.008963 2.27867 4.702591 8.899751 -24.1423 5.349111 -0 17.55227 -0 -8.370235 -3.413376 -2.86003 -2.676822 11.75509 -11.26406 -0 41.41654 -0 -6.428448 -7.998523 8.884329 -2.375675 -0.6783462 3.787883 2.02122 12.24923 -6.756779 1.301405 22.88246 6.841679 1.752369 -23.96261 9.703898 0.815957 -20.29629 13.20678 94.44706 33.61056 -20.59226 -0 0 8.455836 -11.78632 6.265413 8.230863 1.938896 -20.6026 -6.470033 -85.23412 18.26528 16.98003 0 0 -26.96581 11.61987 9.434591 0.1404279
3.970877 96.42531 59.75337 -2.395164 -0.1261413 4.08231 8.412245 -17.49129 5.320223 -0 17.41666 -0 -7.42196 -5.077291 -3.360518 -2.502288 6.655584 -9.622226 -0 51.49969 -0 -7.304454 -4.823065 10.07058 -1.354874 -0.8645311 4.1002 1.56443 13.25922 -6.844311 1.627929 22.84095 5.727943 1.211451 -23.22805 8.847832 -1.658409 -21.54011 13.09516 96.42223 29.30719 -20.72618 -0 0 8.997305 -14.09316 6.494152 8.144016 1.508235 -21.58351 -7.255757 -85.18958 16.43056 18.06623 0 0 -26.3967 10.88722 11.0114 0.1656573
4.368101 97.35884 65.51623 -1.219019 -2.310918 3.355983 7.318173 -10.59274 5.251617 -0 14.88679 -0 -5.944053 -7.286028 -3.460886 -2.675815 -0.6468742 -8.140691 -0 59.23142 -0 -7.40644 -4.383545 11.29657 0.006945985 -1.2807 4.851323 1.178085 14.40559 -7.182356 1.933895 22.54038 4.190829 0.5244845 -22.57933 7.672777 -4.293773 -23.31044 12.75038 97.9263 24.62283 -20.49641 -0 0 10.63239 -16.75139 7.635238 7.927956 1.28878 -22.6671 -7.730308 -85.72429 14.4358 20.08105 0 0 -24.46475 10.72255 12.99556 -0.6381536
4.781681 98.29094 70.95997 0.1994854 -3.377514 2.88467 5.529885 -4.312972 4.270735 -0 12.30286 -0 -6.036459 -9.520616 -2.592458 -2.954298 -8.39708 -7.65212 -0 61.57295 -0 -6.857655 -5.521294 11.95058 0.9646058 -1.593932 5.551185 0.9879527 15.13727 -7.508234 2.077802 22.24176 3.007481 -0.02392912 -22.22077 6.780085 -5.964321 -24.77561 12.42119 98.529 21.74933 -19.98161 -0 0 12.3962 -18.63957 8.802776 7.900555 1.212114 -23.2414 -7.828792 -86.31505 13.15671 21.92089 0 0 -22.33328 10.91569 14.30639 -1.601762
5.057284 98.78772 76.39062 0.9800861 -4.572705 2.435228 4.526771 1.118466 3.361375 -0 11.04851 -0 -6.375726 -10.17499 -1.93825 -2.270188 -14.06289 -6.778677 -0 57.81082 -0 -5.64903 -5.491678 14.14814 1.101138 -1.609089 5.748425 0.9450093 15.27404 -7.536441 2.10201 22.15214 2.70801 -0.2072053 -22.12285 6.596439 -6.161254 -25.26991 12.40601 98.39843 21.46146 -19.53355 -0 0 13.21659 -18.9104 9.05301 8.024881 1.09548 -23.08239 -7.775904 -86.57453 12.92531 22.76728 0 0 -21.30302 10.91813 14.52817 -1.731617
